# xmcd
#
# Track frame offsets:
#	150
#	13218
#	35380
#
# Disc length: 673 seconds
#
# Revision: 1
# Processed by: cddbd v1.4PL0 Copyright (c) Steve Scherf et al.
# Submitted via: audiograbber 1.82.01
#
DISCID=1c029f03
DTITLE=Boys II Men - In The Still Of The Night (I'll Remember)
DYEAR=1900
DGENRE=
TTITLE0=In the still of the nite (I'll remember)
TTITLE1=Snippets from the jacksons: An american dream
TTITLE2=The Jackson 5 - Medley:
EXTD=
EXTT0=
EXTT1=
EXTT2=
PLAYORDER=
